<!-- icon666.com - MILLIONS vector ICONS FREE --><svg id="isometric" enable-background="new 0 0 430 430" viewBox="0 0 430 430" xmlns="http://www.w3.org/2000/svg"><g><path d="m364.4 334.8-37-16.7-74-33.5c-.9-.4-2-.4-2.9 0l-185 83.6c-2.7 1.1-2.7 5.3 0 6.4 0 0 37 16.7 37 16.7.9.4 2 .4 2.9 0l72.6-32.8 72.6 32.8c.9.4 2 .4 2.9 0l37-16.7c1.3-.6 2.1-1.8 2.1-3.2s-.8-2.6-2.1-3.2l-67-30.2 28.5-12.9 72.6 32.8c.9.4 2 .4 2.9 0l37-16.7c2.6-1.1 2.6-5.3-.1-6.4zm-38.4 16.1-72.6-32.8c-.9-.4-2-.4-2.9 0l-37 16.7c-1.4.6-2.3 2.3-2 3.8v16.5c.1 4.6 6.9 4.6 7 0v-11.6l61.9 28-28.4 12.8-72.6-32.8c-.5-.2-1-.3-1.4-.3s-1 .1-1.4.3l-72.6 32.8-28.5-12.9 173-78.2v12.1c0 1.9 1.6 3.5 3.5 3.5s3.5-1.6 3.5-3.5v-12.1l69.1 31.2 29.9 13.5z"></path><path d="m70 193.7c0-1.7-1.3-3-3-3s-3 1.3-3 3v24.2c0 1.7 1.3 3 3 3s3-1.3 3-3z"></path><path d="m366 158.7c0-1.7-1.3-3-3-3s-3 1.3-3 3v14.2c0 1.7 1.3 3 3 3s3-1.3 3-3z"></path><path d="m326 210c1.7 0 3-1.3 3-3v-34.2c0-1.7-1.3-3-3-3s-3 1.3-3 3v34.2c0 1.6 1.3 3 3 3z"></path><path d="m323 234c0 1.7 1.3 3 3 3s3-1.3 3-3v-9.1c0-1.7-1.3-3-3-3s-3 1.3-3 3z"></path><path d="m182.1 172c0-1.7-1.3-3-3-3s-3 1.3-3 3v18.2c0 1.7 1.3 3 3 3s3-1.3 3-3z"></path><path d="m103.8 268.2c1.7 0 3-1.3 3-3v-57.2c0-1.7-1.3-3-3-3s-3 1.3-3 3v57.2c0 1.7 1.4 3 3 3z"></path><path d="m100.8 292.2c0 1.7 1.3 3 3 3s3-1.3 3-3v-9.1c0-1.7-1.3-3-3-3s-3 1.3-3 3z"></path><path d="m67 232c-1.7 0-3 1.3-3 3s1.3 3 3 3 3-1.3 3-3c0-1.6-1.4-3-3-3z"></path><circle cx="179.1" cy="207.4" r="3"></circle><circle cx="363" cy="190" r="3"></circle><path d="m365.1 89-111-50.2c-.7-.3-1.4-.4-2.1-.4s-1.4.1-2.1.4l-185 83.6c-1.8.8-2.9 2.6-2.9 4.6v41.8c0 2 1.2 3.7 2.9 4.6l37 16.7c.7.3 1.4.4 2.1.4s1.4-.1 2.1-.4l71.9-32.6 71.9 32.6c.7.3 1.4.4 2.1.4s1.4-.1 2.1-.4l37-16.7c1.8-.8 2.9-2.6 2.9-4.6v-25.7l29.9 13.5c.7.3 1.4.4 2.1.4s1.4-.1 2.1-.4l37-16.7c1.8-.8 2.9-2.6 2.9-4.6v-41.8c0-1.9-1.2-3.7-2.9-4.5zm-263.1 93.4-33-14.9v-37.4l33 14.9zm74-31.6-70 31.7v-37.5l70-31.7zm74 31.6-70-31.7v-37.4l70 31.7zm37-14.9-33 14.9v-37.4l33-14.9zm37-18.6-33-14.9v-7c0-.8-.5-1.5-1.2-1.9l-35.8-16.1v-29.1c8.4 3.8 60.4 27.3 70 31.6zm2-40.8-73.2-33.1c-.5-.2-1-.2-1.5 0-.1 0-37 16.8-37.1 16.8-.7.3-1.2 1-1.2 1.8s.5 1.5 1.2 1.8c17.4 7.8 52.6 23.8 69.9 31.6l-32.1 14.5-73.2-33.1c-.3-.1-.5-.2-.8-.2s-.6.1-.8.2l-73.2 33.1-32.1-14.5 180.1-81.5 106.1 48zm-76-28.2v27.3l-30.1-13.6 28.5-12.9zm111 54.1-33 14.9v-37.4l33-14.9z"></path></g></svg>